<?xml version="1.0" encoding="UTF-8" standalone="no"?>
<!-- Created with Inkscape (http://www.inkscape.org/) -->

<svg
   width="40.639999mm"
   height="128.5mm"
   viewBox="0 0 40.64 128.5"
   version="1.1"
   id="svg1"
   inkscape:version="1.4.2 (ebf0e940, 2025-05-08)"
   sodipodi:docname="opc-vcv-ir-panel.svg"
   xmlns:inkscape="http://www.inkscape.org/namespaces/inkscape"
   xmlns:sodipodi="http://sodipodi.sourceforge.net/DTD/sodipodi-0.dtd"
   xmlns="http://www.w3.org/2000/svg"
   xmlns:svg="http://www.w3.org/2000/svg">
  <sodipodi:namedview
     id="namedview1"
     pagecolor="#ffffff"
     bordercolor="#000000"
     borderopacity="0.25"
     inkscape:showpageshadow="2"
     inkscape:pageopacity="0.0"
     inkscape:pagecheckerboard="0"
     inkscape:deskcolor="#d1d1d1"
     inkscape:document-units="mm"
     inkscape:zoom="1.6848774"
     inkscape:cx="39.765505"
     inkscape:cy="292.00938"
     inkscape:window-width="1304"
     inkscape:window-height="979"
     inkscape:window-x="169"
     inkscape:window-y="38"
     inkscape:window-maximized="0"
     inkscape:current-layer="layer1"
     showgrid="true"
     showguides="true">
    <inkscape:grid
       id="grid3"
       units="mm"
       originx="0"
       originy="0"
       spacingx="2.5400001"
       spacingy="2.5400001"
       empcolor="#0099e5"
       empopacity="0.30196078"
       color="#0099e5"
       opacity="0.14901961"
       empspacing="4"
       enabled="true"
       visible="true" />
  </sodipodi:namedview>
  <defs
     id="defs1">
    <rect
       x="38.400001"
       y="9.6000006"
       width="76.800001"
       height="28.800002"
       id="rect3" />
    <rect
       x="67.200001"
       y="240.00001"
       width="67.200002"
       height="16.739965"
       id="rect2" />
    <rect
       x="57.600001"
       y="240.00001"
       width="38.399999"
       height="18.355099"
       id="rect7" />
    <rect
       x="50.266924"
       y="242.83465"
       width="55.333078"
       height="25.96537"
       id="rect6" />
    <rect
       x="54.506303"
       y="242.83465"
       width="41.493695"
       height="24.851866"
       id="rect5" />
    <rect
       x="67.200005"
       y="240.00002"
       width="67.200005"
       height="16.739965"
       id="rect2-1" />
    <rect
       x="67.200005"
       y="240.00002"
       width="67.200005"
       height="16.739965"
       id="rect2-15" />
    <rect
       x="67.200005"
       y="240.00002"
       width="67.200005"
       height="16.739965"
       id="rect2-15-8" />
    <rect
       x="67.200005"
       y="240.00002"
       width="67.200005"
       height="16.739965"
       id="rect2-8" />
    <rect
       x="67.200005"
       y="240.00002"
       width="67.200005"
       height="16.739965"
       id="rect2-3" />
  </defs>
  <g
     inkscape:label="Graphics"
     inkscape:groupmode="layer"
     id="layer1">
    <rect
       style="fill:#f2f2f2;stroke-width:0.264583"
       id="rect4"
       width="40.639999"
       height="128.5"
       x="0"
       y="0" />
    <path
       d="m 85.213177,252.58497 v -0.78666 h 1.639996 v -6.73332 h -1.546662 v -0.78667 H 89.4265 v 0.78667 h -1.639996 v 6.74665 H 89.5065 v 0.77333 z m 6.253318,-8.30665 h 0.906664 l 3.493325,6.15999 v -6.15999 h 0.879998 0.133333 v 0.0933 q -0.08,0.08 -0.106667,0.17333 -0.01333,0.0933 -0.01333,0.32 v 7.71998 h -0.733332 l -3.666657,-6.53332 v 6.53332 h -0.893331 z m 6.786649,8.30665 v -8.30665 h 2.666656 q 0.93334,0 1.50667,0.32 0.57333,0.32 0.84,0.85333 0.27999,0.52 0.27999,1.17333 0,0.48 -0.14666,0.89334 -0.14667,0.41333 -0.46667,0.73333 -0.30666,0.32 -0.78666,0.49333 -0.48,0.17333 -1.16,0.17333 h -1.773328 v 3.66666 z m 0.959998,-4.49332 h 1.666658 q 0.61334,0 0.98667,-0.17334 0.37333,-0.18666 0.54666,-0.50666 0.17334,-0.33333 0.17334,-0.76 0,-0.41333 -0.17334,-0.74666 -0.17333,-0.33334 -0.54666,-0.53334 -0.37333,-0.21333 -0.97333,-0.21333 h -1.679998 z m 8.266648,4.63999 q -1.33333,0 -2.01333,-0.78667 -0.66666,-0.8 -0.66666,-2.22666 v -5.43999 h 0.90666 0.13333 v 0.0933 q -0.08,0.08 -0.10666,0.17333 -0.0133,0.0933 -0.0133,0.32 v 4.86665 q 0,1.01333 0.38667,1.61333 0.4,0.6 1.38666,0.6 1,0 1.4,-0.6 0.4,-0.6 0.4,-1.65333 v -5.41332 h 0.89333 v 5.39999 q 0,1.05333 -0.33333,1.73333 -0.33334,0.66666 -0.94667,1 -0.6,0.32 -1.42666,0.32 z m 6.09332,-0.14667 v -7.47998 h -2.36 v -0.84 h 5.75999 v 0.84 h -2.45333 v 7.47998 z"
       id="text2"
       style="font-size:13.3333px;font-family:Inconsolata;-inkscape-font-specification:Inconsolata;text-align:center;text-anchor:middle;white-space:pre"
       transform="matrix(0.26458333,0,0,0.26458333,-6.492821,-16.362765)"
       aria-label="INPUT&#10;" />
    <path
       d="m 95.771805,251.3265 v -0.708 h 1.476 v -6.06 h -1.392 v -0.708 h 3.708 v 0.708 h -1.476 v 6.072 h 1.548 v 0.696 z m 5.627995,-7.476 h 0.816 l 3.144,5.544 v -5.544 h 0.792 0.12 v 0.084 q -0.072,0.072 -0.096,0.156 -0.012,0.084 -0.012,0.288 v 6.948 h -0.66 l -3.3,-5.88 v 5.88 h -0.804 z"
       id="text2-4"
       style="font-size:12px;font-family:Inconsolata;-inkscape-font-specification:Inconsolata;text-align:center;white-space:pre"
       transform="matrix(0.26458333,0,0,0.26458333,-16.652822,54.863538)"
       aria-label="IN&#10;" />
    <path
       d="m 94.799805,251.4585 q -0.852,0 -1.452,-0.444 -0.6,-0.444 -0.912,-1.296 -0.312,-0.864 -0.312,-2.088 0,-1.188 0.312,-2.04 0.312,-0.864 0.912,-1.32 0.6,-0.468 1.452,-0.468 0.864,0 1.452,0.468 0.6,0.456 0.912,1.32 0.312,0.852 0.312,2.04 0,1.224 -0.312,2.088 -0.312,0.852 -0.912,1.296 -0.588,0.444 -1.452,0.444 z m 0,-0.732 q 0.576,0 0.972,-0.36 0.408,-0.36 0.624,-1.044 0.216,-0.696 0.216,-1.692 0,-0.948 -0.216,-1.632 -0.216,-0.696 -0.624,-1.08 -0.396,-0.384 -0.972,-0.384 -0.564,0 -0.972,0.384 -0.408,0.384 -0.624,1.08 -0.216,0.684 -0.216,1.632 0,0.996 0.216,1.692 0.216,0.684 0.624,1.044 0.408,0.36 0.972,0.36 z m 6.011995,0.732 q -1.199995,0 -1.811995,-0.708 -0.6,-0.72 -0.6,-2.004 v -4.896 h 0.816 0.12 v 0.084 q -0.072,0.072 -0.096,0.156 -0.012,0.084 -0.012,0.288 v 4.38 q 0,0.912 0.348,1.452 0.36,0.54 1.247995,0.54 0.9,0 1.26,-0.54 0.36,-0.54 0.36,-1.488 v -4.872 h 0.804 v 4.86 q 0,0.948 -0.3,1.56 -0.3,0.6 -0.852,0.9 -0.54,0.288 -1.284,0.288 z m 5.484,-0.132 v -6.732 h -2.124 v -0.756 h 5.184 v 0.756 h -2.208 v 6.732 z"
       id="text2-4-5"
       style="font-size:12px;font-family:Inconsolata;-inkscape-font-specification:Inconsolata;text-align:center;white-space:pre"
       transform="matrix(0.26458333,0,0,0.26458333,3.681465,54.863538)"
       aria-label="OUT" />
    <path
       d="m 84.13318,252.73164 q -0.946664,0 -1.613329,-0.49334 -0.666665,-0.49333 -1.013331,-1.43999 -0.346666,-0.96 -0.346666,-2.32 0,-1.31999 0.346666,-2.26666 0.346666,-0.96 1.013331,-1.46666 0.666665,-0.52 1.613329,-0.52 0.959998,0 1.613329,0.52 0.666665,0.50666 1.013331,1.46666 0.346666,0.94667 0.346666,2.26666 0,1.36 -0.346666,2.32 -0.346666,0.94666 -1.013331,1.43999 -0.653331,0.49334 -1.613329,0.49334 z m 0,-0.81334 q 0.639999,0 1.079997,-0.39999 0.453333,-0.4 0.693332,-1.16 0.239999,-0.77333 0.239999,-1.88 0,-1.05333 -0.239999,-1.81333 -0.239999,-0.77333 -0.693332,-1.19999 -0.439998,-0.42667 -1.079997,-0.42667 -0.626665,0 -1.079997,0.42667 -0.453332,0.42666 -0.693332,1.19999 -0.239999,0.76 -0.239999,1.81333 0,1.10667 0.239999,1.88 0.24,0.76 0.693332,1.16 0.453332,0.39999 1.079997,0.39999 z m 6.679983,0.81334 q -1.33333,0 -2.013328,-0.78667 -0.666665,-0.8 -0.666665,-2.22666 v -5.43999 h 0.906664 0.133333 v 0.0933 q -0.08,0.08 -0.106666,0.17333 -0.01333,0.0933 -0.01333,0.32 v 4.86665 q 0,1.01333 0.386665,1.61333 0.399999,0.6 1.386664,0.6 0.999997,0 1.399996,-0.6 0.399999,-0.6 0.399999,-1.65333 v -5.41332 h 0.893331 v 5.39999 q 0,1.05333 -0.333332,1.73333 -0.333333,0.66666 -0.946665,1 -0.599998,0.32 -1.426663,0.32 z m 6.093318,-0.14667 v -7.47998 h -2.359994 v -0.84 h 5.759983 v 0.84 h -2.453325 v 7.47998 z m 4.679989,0 v -8.30665 h 2.66666 q 0.93333,0 1.50666,0.32 0.57333,0.32 0.84,0.85333 0.28,0.52 0.28,1.17333 0,0.48 -0.14667,0.89334 -0.14666,0.41333 -0.46666,0.73333 -0.30667,0.32 -0.78667,0.49333 -0.47999,0.17333 -1.15999,0.17333 h -1.77333 v 3.66666 z m 0.96,-4.49332 h 1.66666 q 0.61333,0 0.98666,-0.17334 0.37334,-0.18666 0.54667,-0.50666 0.17333,-0.33333 0.17333,-0.76 0,-0.41333 -0.17333,-0.74666 -0.17333,-0.33334 -0.54667,-0.53334 -0.37333,-0.21333 -0.97333,-0.21333 h -1.67999 z m 8.26664,4.63999 q -1.33333,0 -2.01333,-0.78667 -0.66666,-0.8 -0.66666,-2.22666 v -5.43999 h 0.90666 0.13334 v 0.0933 q -0.08,0.08 -0.10667,0.17333 -0.0133,0.0933 -0.0133,0.32 v 4.86665 q 0,1.01333 0.38666,1.61333 0.4,0.6 1.38667,0.6 0.99999,0 1.39999,-0.6 0.4,-0.6 0.4,-1.65333 v -5.41332 h 0.89333 v 5.39999 q 0,1.05333 -0.33333,1.73333 -0.33333,0.66666 -0.94666,1 -0.6,0.32 -1.42667,0.32 z m 6.09332,-0.14667 v -7.47998 h -2.35999 v -0.84 h 5.75998 v 0.84 h -2.45333 v 7.47998 z"
       id="text2-1"
       style="font-size:13.3333px;font-family:Inconsolata;-inkscape-font-specification:Inconsolata;text-align:center;white-space:pre"
       transform="matrix(0.26458333,0,0,0.26458333,-6.3323082,7.1440064)"
       aria-label="OUTPUT" />
  </g>
  <g
     inkscape:groupmode="layer"
     id="layer2"
     inkscape:label="components"
     style="display:none"
     sodipodi:insensitive="true">
    <circle
       style="fill:#00ff00;fill-opacity:1;stroke-width:0.264583"
       id="input"
       cx="10.16"
       cy="111.76"
       r="5.0799999"
       inkscape:label="input" />
    <circle
       style="fill:#0000ff;fill-opacity:1;stroke-width:0.264583"
       id="output"
       cx="30.48"
       cy="111.76"
       r="5.0799999"
       inkscape:label="output" />
    <circle
       style="fill:#ff0000;fill-opacity:1;stroke-width:0.264583"
       id="input_gain"
       cx="20.32"
       cy="40.640003"
       r="5.0799999"
       inkscape:label="input_gain" />
    <circle
       style="fill:#ff0000;fill-opacity:1;stroke-width:0.264583"
       id="output_gain"
       cx="20.32"
       cy="63.698055"
       r="5.0799999"
       inkscape:label="output_gain"
       inkscape:transform-center-y="-15.695896" />
    <rect
       style="fill:#ffff00;fill-opacity:1;stroke-width:0.264583"
       id="ir_picker"
       width="30.48"
       height="20.32"
       x="5.0800014"
       y="7.6200013"
       inkscape:label="ir_picker" />
  </g>
</svg>
