<?xml version="1.0" encoding="UTF-8" standalone="no"?>
<!-- Created with Inkscape (http://www.inkscape.org/) -->

<svg
   width="40.639999mm"
   height="128.5mm"
   viewBox="0 0 40.64 128.5"
   version="1.1"
   id="svg1"
   inkscape:version="1.4.2 (ebf0e940, 2025-05-08)"
   sodipodi:docname="opc-vcv-ir-panel.svg"
   xmlns:inkscape="http://www.inkscape.org/namespaces/inkscape"
   xmlns:sodipodi="http://sodipodi.sourceforge.net/DTD/sodipodi-0.dtd"
   xmlns="http://www.w3.org/2000/svg"
   xmlns:svg="http://www.w3.org/2000/svg">
  <sodipodi:namedview
     id="namedview1"
     pagecolor="#ffffff"
     bordercolor="#000000"
     borderopacity="0.25"
     inkscape:showpageshadow="2"
     inkscape:pageopacity="0.0"
     inkscape:pagecheckerboard="0"
     inkscape:deskcolor="#d1d1d1"
     inkscape:document-units="mm"
     inkscape:zoom="1.6848774"
     inkscape:cx="39.765505"
     inkscape:cy="292.00938"
     inkscape:window-width="1304"
     inkscape:window-height="979"
     inkscape:window-x="169"
     inkscape:window-y="38"
     inkscape:window-maximized="0"
     inkscape:current-layer="layer1"
     showgrid="true"
     showguides="true">
    <inkscape:grid
       id="grid3"
       units="mm"
       originx="0"
       originy="0"
       spacingx="2.5400001"
       spacingy="2.5400001"
       empcolor="#0099e5"
       empopacity="0.30196078"
       color="#0099e5"
       opacity="0.14901961"
       empspacing="4"
       enabled="true"
       visible="true" />
  </sodipodi:namedview>
  <defs
     id="defs1">
    <rect
       x="38.400001"
       y="9.6000006"
       width="76.800001"
       height="28.800002"
       id="rect3" />
    <rect
       x="67.200001"
       y="240.00001"
       width="67.200002"
       height="16.739965"
       id="rect2" />
    <rect
       x="57.600001"
       y="240.00001"
       width="38.399999"
       height="18.355099"
       id="rect7" />
    <rect
       x="50.266924"
       y="242.83465"
       width="55.333078"
       height="25.96537"
       id="rect6" />
    <rect
       x="54.506303"
       y="242.83465"
       width="41.493695"
       height="24.851866"
       id="rect5" />
    <rect
       x="67.200005"
       y="240.00002"
       width="67.200005"
       height="16.739965"
       id="rect2-1" />
    <rect
       x="67.200005"
       y="240.00002"
       width="67.200005"
       height="16.739965"
       id="rect2-15" />
    <rect
       x="67.200005"
       y="240.00002"
       width="67.200005"
       height="16.739965"
       id="rect2-15-8" />
    <rect
       x="67.200005"
       y="240.00002"
       width="67.200005"
       height="16.739965"
       id="rect2-8" />
    <rect
       x="67.200005"
       y="240.00002"
       width="67.200005"
       height="16.739965"
       id="rect2-3" />
  </defs>
  <g
     inkscape:label="Graphics"
     inkscape:groupmode="layer"
     id="layer1">
    <rect
       style="fill:#f2f2f2;stroke-width:0.264583"
       id="rect4"
       width="40.639999"
       height="128.5"
       x="0"
       y="0" />
    <path
       d="m 95.771805,251.3265 v -0.708 h 1.476 v -6.06 h -1.392 v -0.708 h 3.708 v 0.708 h -1.476 v 6.072 h 1.548 v 0.696 z m 5.627995,-7.476 h 0.816 l 3.144,5.544 v -5.544 h 0.792 0.12 v 0.084 q -0.072,0.072 -0.096,0.156 -0.012,0.084 -0.012,0.288 v 6.948 h -0.66 l -3.3,-5.88 v 5.88 h -0.804 z"
       id="text2-4"
       style="font-size:12px;font-family:Inconsolata;-inkscape-font-specification:Inconsolata;text-align:center;white-space:pre"
       transform="matrix(0.26458333,0,0,0.26458333,-16.652822,54.863538)"
       aria-label="IN&#10;" />
    <path
       d="m 94.799805,251.4585 q -0.852,0 -1.452,-0.444 -0.6,-0.444 -0.912,-1.296 -0.312,-0.864 -0.312,-2.088 0,-1.188 0.312,-2.04 0.312,-0.864 0.912,-1.32 0.6,-0.468 1.452,-0.468 0.864,0 1.452,0.468 0.6,0.456 0.912,1.32 0.312,0.852 0.312,2.04 0,1.224 -0.312,2.088 -0.312,0.852 -0.912,1.296 -0.588,0.444 -1.452,0.444 z m 0,-0.732 q 0.576,0 0.972,-0.36 0.408,-0.36 0.624,-1.044 0.216,-0.696 0.216,-1.692 0,-0.948 -0.216,-1.632 -0.216,-0.696 -0.624,-1.08 -0.396,-0.384 -0.972,-0.384 -0.564,0 -0.972,0.384 -0.408,0.384 -0.624,1.08 -0.216,0.684 -0.216,1.632 0,0.996 0.216,1.692 0.216,0.684 0.624,1.044 0.408,0.36 0.972,0.36 z m 6.011995,0.732 q -1.199995,0 -1.811995,-0.708 -0.6,-0.72 -0.6,-2.004 v -4.896 h 0.816 0.12 v 0.084 q -0.072,0.072 -0.096,0.156 -0.012,0.084 -0.012,0.288 v 4.38 q 0,0.912 0.348,1.452 0.36,0.54 1.247995,0.54 0.9,0 1.26,-0.54 0.36,-0.54 0.36,-1.488 v -4.872 h 0.804 v 4.86 q 0,0.948 -0.3,1.56 -0.3,0.6 -0.852,0.9 -0.54,0.288 -1.284,0.288 z m 5.484,-0.132 v -6.732 h -2.124 v -0.756 h 5.184 v 0.756 h -2.208 v 6.732 z"
       id="text2-4-5"
       style="font-size:12px;font-family:Inconsolata;-inkscape-font-specification:Inconsolata;text-align:center;white-space:pre"
       transform="matrix(0.26458333,0,0,0.26458333,3.681465,54.863538)"
       aria-label="OUT" />
    <path
       d="m 17.531815,50.536231 q -0.287162,0 -0.500592,-0.151342 -0.209551,-0.151342 -0.322087,-0.426862 -0.112536,-0.27552 -0.112536,-0.640292 -0.0039,-0.314325 0.05433,-0.531637 0.06209,-0.221192 0.162983,-0.364772 0.100895,-0.143581 0.225073,-0.225073 0.124178,-0.08149 0.248355,-0.112536 0.128059,-0.03104 0.232834,-0.03104 0.143581,0 0.2794,0.05433 0.139701,0.05045 0.252237,0.1397 0.116417,0.08925 0.182386,0.213431 l -0.190147,0.151342 -0.03105,0.02716 -0.01552,-0.02328 q 0.0039,-0.03105 -0.01164,-0.05433 -0.01164,-0.02716 -0.05433,-0.07761 -0.05821,-0.06597 -0.120297,-0.108655 -0.06209,-0.04269 -0.13582,-0.06209 -0.06985,-0.0194 -0.159102,-0.0194 -0.104776,0 -0.20179,0.03104 -0.09701,0.02716 -0.178505,0.09701 -0.08149,0.06597 -0.143581,0.178505 -0.06209,0.112537 -0.09701,0.27552 -0.03105,0.162984 -0.03105,0.384175 0,0.252237 0.04657,0.446265 0.04657,0.190147 0.131939,0.322086 0.08925,0.131939 0.20955,0.201789 0.124178,0.06597 0.279401,0.06597 0.05433,0 0.112536,-0.0078 0.06209,-0.0078 0.120297,-0.02328 0.06209,-0.0194 0.120298,-0.04657 0.05821,-0.03104 0.104775,-0.06985 v -0.574323 h -0.438503 v -0.236714 h 0.690739 v 0.946856 q -0.170744,0.124178 -0.34925,0.190148 -0.178506,0.06209 -0.360892,0.06209 z m 2.250724,-0.745068 h -0.877006 l 0.05433,-0.20955 h 0.76059 z m -0.4191,-1.133123 -0.636412,1.839385 h -0.267758 l 0.892528,-2.460275 h 0.03104 l 0.892529,2.460275 H 19.99597 Z m 1.288346,1.839385 v -0.228953 h 0.477309 v -1.959683 h -0.450145 v -0.228953 h 1.199093 v 0.228953 h -0.477309 v 1.963564 h 0.500592 v 0.225072 z m 1.819983,-2.417589 h 0.263878 l 1.016706,1.792819 v -1.792819 h 0.256117 0.03881 V 48.107 q -0.02328,0.02328 -0.03104,0.05045 -0.0039,0.02716 -0.0039,0.09313 v 2.246844 h -0.213431 l -1.067154,-1.901474 v 1.901474 h -0.259997 z"
       id="text1"
       style="font-size:3.88056px;font-family:Monospace;-inkscape-font-specification:Monospace;text-align:center;text-anchor:middle;stroke-width:0.264583"
       aria-label="GAIN" />
  </g>
  <g
     inkscape:groupmode="layer"
     id="layer2"
     inkscape:label="components"
     style="display:none"
     sodipodi:insensitive="true">
    <circle
       style="fill:#00ff00;fill-opacity:1;stroke-width:0.264583"
       id="input"
       cx="10.16"
       cy="111.76"
       r="5.0799999"
       inkscape:label="input" />
    <circle
       style="fill:#0000ff;fill-opacity:1;stroke-width:0.264583"
       id="output"
       cx="30.48"
       cy="111.76"
       r="5.0799999"
       inkscape:label="output" />
    <circle
       style="fill:#ff0000;fill-opacity:1;stroke-width:0.264583"
       id="input_gain"
       cx="20.32"
       cy="40.640003"
       r="5.0799999"
       inkscape:label="input_gain" />
    <circle
       style="fill:#ff0000;fill-opacity:1;stroke-width:0.264583"
       id="output_gain"
       cx="20.32"
       cy="63.698055"
       r="5.0799999"
       inkscape:label="output_gain"
       inkscape:transform-center-y="-15.695896" />
    <rect
       style="fill:#ffff00;fill-opacity:1;stroke-width:0.264583"
       id="ir_picker"
       width="30.48"
       height="20.32"
       x="5.0800014"
       y="7.6200013"
       inkscape:label="ir_picker" />
  </g>
</svg>
